<svg width="153" height="28" viewBox="0 0 153 28" fill="none" xmlns="http://www.w3.org/2000/svg">
<path d="M19.5488 28H7.15625C6.52344 28 5.83203 27.8887 5.08203 27.666C4.33203 27.4434 3.63477 27.0801 2.99023 26.5762C2.35742 26.0605 1.82422 25.3984 1.39062 24.5898C0.96875 23.7695 0.757812 22.7676 0.757812 21.584V15.3965C0.757812 14.9629 0.804688 14.5059 0.898438 14.0254C1.00391 13.5449 1.16211 13.0703 1.37305 12.6016C1.58398 12.1211 1.85352 11.6641 2.18164 11.2305C2.52148 10.7969 2.92578 10.416 3.39453 10.0879C3.875 9.75977 4.42578 9.49609 5.04688 9.29688C5.66797 9.09766 6.37109 8.99805 7.15625 8.99805H19.5488V13.5684H7.15625C6.55859 13.5684 6.10156 13.7207 5.78516 14.0254C5.48047 14.3301 5.32812 14.7988 5.32812 15.4316V21.584C5.32812 22.1816 5.48633 22.6387 5.80273 22.9551C6.11914 23.2715 6.58203 23.4297 7.19141 23.4297H19.5488V28ZM44.457 28H39.8867V15.3965C39.8867 14.7988 39.7344 14.3477 39.4297 14.043C39.125 13.7266 38.668 13.5684 38.0586 13.5684H29.8145V8.99805H38.0586C38.4922 8.99805 38.9492 9.05078 39.4297 9.15625C39.9102 9.25 40.3848 9.40234 40.8535 9.61328C41.334 9.82422 41.791 10.0996 42.2246 10.4395C42.6582 10.7676 43.0391 11.1719 43.3672 11.6523C43.6953 12.1211 43.959 12.666 44.1582 13.2871C44.3574 13.9082 44.457 14.6113 44.457 15.3965V28ZM27.9688 28H23.3984V0.964844H27.9688V28ZM65.2695 13.5684H54.9863C54.3652 13.5684 53.8965 13.7266 53.5801 14.043C53.2637 14.3477 53.1055 14.7988 53.1055 15.3965V28H48.5352V15.3965C48.5352 14.6113 48.6348 13.9082 48.834 13.2871C49.0332 12.666 49.2969 12.1211 49.625 11.6523C49.9648 11.1719 50.3516 10.7676 50.7852 10.4395C51.2188 10.0996 51.6699 9.82422 52.1387 9.61328C52.6191 9.40234 53.0996 9.25 53.5801 9.15625C54.0723 9.05078 54.5293 8.99805 54.9512 8.99805H65.2695V13.5684ZM72.9336 5.0957H68.3633V0.964844H72.9336V5.0957ZM72.9336 28H68.3633V8.99805H72.9336V28ZM95.6973 21.584C95.6973 22.3691 95.5977 23.0781 95.3984 23.7109C95.1992 24.332 94.9355 24.8828 94.6074 25.3633C94.2793 25.832 93.8984 26.2363 93.4648 26.5762C93.0312 26.9043 92.5742 27.1738 92.0938 27.3848C91.625 27.5957 91.1445 27.7539 90.6523 27.8594C90.1719 27.9531 89.7148 28 89.2812 28H76.9062V23.4297H89.2461C89.8672 23.4297 90.3359 23.2715 90.6523 22.9551C90.9688 22.6387 91.127 22.1816 91.127 21.584C91.0684 20.3652 90.4531 19.7559 89.2812 19.7559H82.1973C81.1895 19.7559 80.334 19.5801 79.6309 19.2285C78.9277 18.877 78.3535 18.4375 77.9082 17.9102C77.4746 17.3828 77.1582 16.8145 76.959 16.2051C76.7715 15.5957 76.6777 15.0273 76.6777 14.5C76.6777 13.4805 76.8594 12.625 77.2227 11.9336C77.5859 11.2305 78.043 10.6621 78.5938 10.2285C79.1445 9.79492 79.7422 9.48438 80.3867 9.29688C81.0312 9.09766 81.6348 8.99805 82.1973 8.99805H93.4297V13.5684H82.2324C81.998 13.5684 81.8105 13.5977 81.6699 13.6562C81.541 13.7031 81.4414 13.7734 81.3711 13.8672C81.3125 13.9492 81.2773 14.043 81.2656 14.1484C81.2539 14.2422 81.248 14.3359 81.248 14.4297C81.2598 14.6172 81.2949 14.7637 81.3535 14.8691C81.4121 14.9746 81.4824 15.0508 81.5645 15.0977C81.6582 15.1445 81.7578 15.1738 81.8633 15.1855C81.9805 15.1855 82.0918 15.1855 82.1973 15.1855H89.2812C90.4531 15.1855 91.4492 15.3965 92.2695 15.8184C93.0898 16.2402 93.752 16.7734 94.2559 17.418C94.7598 18.0508 95.123 18.7422 95.3457 19.4922C95.5801 20.2422 95.6973 20.9395 95.6973 21.584ZM116.914 10.4043C117.102 10.8379 117.148 11.2773 117.055 11.7227C116.973 12.168 116.773 12.5547 116.457 12.8828L105.893 23.4297H116.879V28H100.391C99.9219 28 99.4941 27.8711 99.1074 27.6133C98.7324 27.3438 98.4512 27.0039 98.2637 26.5938C98.0879 26.1602 98.041 25.7207 98.123 25.2754C98.2168 24.8184 98.4336 24.4199 98.7734 24.0801L109.285 13.5684H98.2988V8.99805H114.822C115.279 8.99805 115.695 9.12109 116.07 9.36719C116.457 9.61328 116.738 9.95898 116.914 10.4043ZM140.188 21.707C140.188 22.3398 140.076 23.0254 139.854 23.7637C139.631 24.4902 139.268 25.1699 138.764 25.8027C138.271 26.4238 137.621 26.9453 136.812 27.3672C136.016 27.7891 135.043 28 133.895 28H125.65C125.018 28 124.332 27.8887 123.594 27.666C122.867 27.4434 122.188 27.0859 121.555 26.5938C120.934 26.0898 120.412 25.4395 119.99 24.6426C119.568 23.834 119.357 22.8555 119.357 21.707C119.357 21.0742 119.469 20.3887 119.691 19.6504C119.914 18.9121 120.271 18.2324 120.764 17.6113C121.268 16.9785 121.918 16.4512 122.715 16.0293C123.523 15.6074 124.502 15.3965 125.65 15.3965H133.895V19.7559H125.65C125.029 19.7559 124.549 19.9492 124.209 20.3359C123.869 20.7109 123.699 21.1797 123.699 21.7422C123.699 22.3398 123.893 22.8086 124.279 23.1484C124.678 23.4766 125.146 23.6406 125.686 23.6406H133.895C134.516 23.6406 134.996 23.4531 135.336 23.0781C135.676 22.7031 135.846 22.2344 135.846 21.6719V15.291C135.846 14.6934 135.658 14.2188 135.283 13.8672C134.92 13.5156 134.457 13.3398 133.895 13.3398H123.857V8.99805H133.895C134.527 8.99805 135.207 9.10938 135.934 9.33203C136.672 9.55469 137.352 9.91797 137.973 10.4219C138.605 10.9141 139.133 11.5645 139.555 12.373C139.977 13.1699 140.188 14.1426 140.188 15.291V21.707ZM152.439 28H150.4C149.744 28 149.041 27.8887 148.291 27.666C147.553 27.4434 146.861 27.0801 146.217 26.5762C145.572 26.0605 145.039 25.3984 144.617 24.5898C144.195 23.7695 143.984 22.7676 143.984 21.584V0.964844H148.555V21.584C148.555 22.1465 148.73 22.5977 149.082 22.9375C149.434 23.2656 149.873 23.4297 150.4 23.4297H152.439V28Z" fill="black"/>
<rect x="30" y="2" width="35" height="3" fill="url(#paint0_linear_0_1)"/>
<path d="M77 2H140V5H77V2Z" fill="url(#paint1_linear_0_1)"/>
<defs>
<linearGradient id="paint0_linear_0_1" x1="30" y1="3.5" x2="65" y2="3.5" gradientUnits="userSpaceOnUse">
<stop stop-color="#EB0E50"/>
<stop offset="0.47" stop-color="#9C40F8"/>
<stop offset="1" stop-color="#096BFF"/>
</linearGradient>
<linearGradient id="paint1_linear_0_1" x1="41" y1="-123.25" x2="104" y2="-123.25" gradientUnits="userSpaceOnUse">
<stop stop-color="#F80B52"/>
<stop offset="0.535" stop-color="#FD5834"/>
<stop offset="0.815" stop-color="#F26600"/>
<stop offset="1" stop-color="#FFBA09"/>
</linearGradient>
</defs>
</svg>
